<?xml version="1.0" standalone="no"?>
<!DOCTYPE svg PUBLIC "-//W3C//DTD SVG 20010904//EN"
 "http://www.w3.org/TR/2001/REC-SVG-20010904/DTD/svg10.dtd">
<svg version="1.0" xmlns="http://www.w3.org/2000/svg"
 width="300.000000pt" height="300.000000pt" viewBox="0 0 300.000000 300.000000"
 preserveAspectRatio="xMidYMid meet">

<g transform="translate(0.000000,300.000000) scale(0.100000,-0.100000)"
fill="#000000" stroke="none">
<path d="M1450 2769 c-96 -40 -131 -163 -71 -246 26 -35 45 -48 104 -67 15 -5
17 -20 17 -126 0 -66 -4 -120 -8 -120 -5 0 -76 21 -158 46 -258 78 -321 73
-436 -41 -86 -84 -133 -115 -174 -115 -30 0 -34 3 -34 25 0 21 -5 25 -30 25
-20 0 -30 -5 -30 -15 0 -8 -5 -15 -10 -15 -13 0 -58 27 -87 54 -21 17 -23 18
-23 2 0 -33 27 -82 64 -114 20 -17 41 -32 46 -32 6 0 10 -13 10 -30 0 -28 -2
-30 -38 -30 -35 0 -38 -2 -50 -42 -7 -24 -74 -228 -148 -455 l-135 -412 -86
-3 -86 -3 45 -47 c84 -86 191 -138 337 -163 187 -33 409 -9 548 60 67 33 183
126 183 146 0 5 -33 9 -73 9 l-73 0 -146 453 -146 452 -36 3 c-27 2 -36 8 -36
21 0 15 11 19 63 23 72 6 134 31 227 91 52 34 72 42 110 41 46 -1 62 -7 233
-97 49 -25 109 -49 133 -53 l44 -6 0 -254 0 -254 -51 -107 -51 -108 4 -290 3
-290 -133 -3 -132 -3 0 -49 c0 -45 -9 -64 -110 -230 l-110 -180 615 0 616 0
-43 58 c-23 31 -80 109 -127 172 -78 105 -86 120 -91 170 l-5 55 -117 3 -118
3 0 299 0 300 -50 100 -50 100 0 254 0 253 41 7 c23 4 104 39 181 79 168 87
196 91 279 37 99 -63 159 -89 220 -96 49 -5 59 -10 59 -25 0 -15 -7 -19 -34
-19 l-35 0 -116 -355 c-64 -196 -130 -401 -147 -455 l-32 -99 -85 -3 -86 -3
56 -56 c107 -108 286 -169 495 -169 232 0 406 59 522 178 l45 47 -78 5 -79 5
-145 453 -145 452 -38 0 c-33 0 -38 3 -38 23 0 16 11 27 42 42 45 22 92 80
102 128 l7 28 -53 -35 c-73 -47 -98 -54 -98 -26 0 31 -54 24 -58 -7 -2 -16
-10 -23 -25 -23 -30 0 -57 19 -154 111 -48 45 -98 82 -119 89 -57 19 -163 5
-305 -39 -70 -22 -143 -43 -163 -46 l-36 -7 0 120 0 120 47 23 c63 32 86 66
91 136 3 48 0 64 -20 92 -12 19 -35 43 -50 54 -31 23 -111 32 -148 16z m-820
-1284 l0 -425 -156 0 c-130 0 -155 2 -151 14 3 8 65 196 137 418 73 221 134
406 137 411 2 4 11 7 19 7 12 0 14 -62 14 -425z m171 173 c44 -139 105 -329
135 -421 30 -92 54 -170 54 -172 0 -3 -67 -5 -150 -5 l-150 0 0 425 c0 367 2
425 15 425 10 0 38 -74 96 -252z m1529 -173 l0 -425 -150 0 c-82 0 -150 3
-150 7 0 4 49 158 109 343 61 184 122 372 136 418 17 53 31 82 40 82 13 0 15
-60 15 -425z m114 368 c10 -32 69 -218 132 -413 63 -196 114 -361 114 -368 0
-9 -39 -12 -150 -12 l-150 0 0 425 c0 404 1 425 18 425 14 0 23 -15 36 -57z"/>
</g>
</svg>
