<?xml version="1.0" standalone="no"?>
<!DOCTYPE svg PUBLIC "-//W3C//DTD SVG 20010904//EN"
 "http://www.w3.org/TR/2001/REC-SVG-20010904/DTD/svg10.dtd">
<svg version="1.0" xmlns="http://www.w3.org/2000/svg"
 width="260.000000pt" height="260.000000pt" viewBox="0 0 260.000000 260.000000"
 preserveAspectRatio="xMidYMid meet">
<metadata>
Created by potrace 1.14, written by Peter Selinger 2001-2017
</metadata>
<g transform="translate(0.000000,260.000000) scale(0.100000,-0.100000)"
fill="#000000" stroke="none">
<path d="M1266 2390 c-131 -41 -126 -232 8 -266 26 -6 26 -6 26 -110 0 -57 -4
-104 -9 -104 -5 0 -53 14 -107 31 -130 40 -235 59 -279 49 -46 -10 -75 -30
-156 -105 -79 -75 -149 -98 -149 -49 0 17 -47 19 -53 2 -3 -9 -19 -2 -52 20
l-48 33 7 -28 c10 -41 34 -73 67 -91 21 -12 29 -25 29 -44 0 -24 -4 -28 -30
-28 l-29 0 -128 -390 -127 -390 -68 0 c-37 0 -68 -4 -68 -9 0 -16 93 -92 143
-118 176 -89 489 -88 655 2 52 28 142 101 142 115 0 5 -28 10 -62 12 l-62 3
-83 260 c-46 143 -102 317 -124 387 -40 126 -40 127 -72 130 -21 2 -33 9 -35
21 -3 14 5 17 50 17 67 1 112 17 191 69 91 59 118 57 264 -19 63 -33 132 -63
154 -66 l39 -7 0 -219 0 -218 -40 -80 -40 -80 0 -260 0 -260 -115 0 -115 0 0
-45 c0 -39 -12 -64 -85 -185 -47 -77 -88 -147 -91 -155 -5 -13 59 -15 515 -15
287 0 521 3 521 6 0 4 -50 74 -110 157 -100 137 -110 155 -110 194 l0 43 -100
0 -100 0 0 253 0 253 -45 93 -45 93 2 210 3 209 65 24 c36 12 103 44 150 69
107 57 153 61 220 15 76 -51 118 -70 178 -77 41 -5 57 -11 57 -22 0 -10 -12
-16 -32 -18 l-32 -3 -119 -367 c-66 -202 -123 -377 -127 -389 -5 -20 -14 -22
-78 -25 l-72 -3 45 -45 c98 -97 232 -141 430 -141 137 0 238 20 327 64 49 26
143 102 143 117 0 5 -28 10 -62 12 l-62 3 -67 210 c-197 618 -177 565 -210
565 -24 0 -29 4 -29 25 0 14 5 25 11 25 33 0 109 90 109 129 0 5 -26 -6 -57
-25 -46 -28 -59 -32 -61 -19 -5 20 -52 20 -52 0 0 -46 -61 -21 -146 60 -73 71
-94 85 -139 95 -44 10 -149 -9 -279 -49 -54 -17 -105 -31 -112 -31 -11 0 -14
22 -14 105 0 103 0 105 25 111 34 8 83 66 90 108 19 99 -81 186 -179 156z
m-716 -1105 l0 -365 -130 0 c-72 0 -130 2 -130 4 0 3 45 141 99 308 55 167
108 329 118 361 9 31 23 57 30 57 10 0 13 -73 13 -365z m191 25 c60 -184 111
-348 114 -363 l7 -28 -129 3 -128 3 -3 363 c-2 336 -1 363 15 360 12 -2 43
-86 124 -338z m1274 -26 l0 -359 -134 -3 c-105 -2 -132 0 -129 10 3 7 54 161
113 342 128 395 122 379 138 373 9 -3 12 -85 12 -363z m192 10 c62 -192 113
-355 113 -361 0 -10 -32 -13 -125 -13 l-125 0 0 366 c0 288 3 365 12 362 7 -3
63 -162 125 -354z"/>
</g>
</svg>
