<?xml version="1.0" standalone="no"?>
<!DOCTYPE svg PUBLIC "-//W3C//DTD SVG 20010904//EN"
 "http://www.w3.org/TR/2001/REC-SVG-20010904/DTD/svg10.dtd">
<svg version="1.0" xmlns="http://www.w3.org/2000/svg"
 width="64.000000pt" height="64.000000pt" viewBox="0 0 64.000000 64.000000"
 preserveAspectRatio="xMidYMid meet">

<g transform="translate(0.000000,64.000000) scale(0.100000,-0.100000)"
fill="#fff" stroke="none">
<path d="M263 624 c-51 -25 -77 -99 -52 -146 10 -18 8 -24 -7 -37 -37 -30 -54
-65 -54 -110 0 -37 5 -49 34 -75 18 -18 53 -38 77 -45 113 -34 157 -78 125
-125 -34 -53 -109 -45 -138 14 -23 45 -54 48 -51 5 3 -42 34 -78 81 -95 37
-13 47 -13 84 0 52 19 83 59 83 110 0 56 -38 91 -133 125 -43 16 -85 35 -94
43 -26 22 -23 76 4 102 27 25 50 25 123 0 81 -28 95 -43 95 -102 0 -40 3 -48
19 -48 23 0 31 19 31 72 0 55 -44 98 -131 127 -105 35 -137 82 -86 129 44 41
108 25 127 -33 16 -48 50 -50 50 -1 0 80 -105 130 -187 90z"/>
</g>
</svg>
